<svg width="89" height="85" viewBox="0 0 89 85" fill="none" xmlns="http://www.w3.org/2000/svg">
<g clip-path="url(#clip0_10_179)">
<path d="M57.4315 0H16.1602C14.2621 0.000879371 12.4419 0.74976 11.1 2.08199C9.7581 3.41421 9.00427 5.22073 9.00427 7.10434V36.5267C9.04104 43.1202 17.1763 46.3175 21.8422 41.6277L38.34 25.0443L27.3103 18.2948L30.0911 15.5354L43.3469 19.8868L48.7113 14.338C49.1263 13.8936 49.6845 13.6068 50.2897 13.5269C50.8949 13.447 51.5093 13.579 52.027 13.9002C52.3486 14.1098 52.6185 14.3886 52.8166 14.7159C53.0147 15.0432 53.136 15.4106 53.1713 15.7907C53.2066 16.1709 53.1551 16.5541 53.0207 16.9119C52.8862 17.2696 52.6722 17.5927 52.3946 17.857L46.7193 23.2599L51.1045 36.4139L48.3236 39.18L41.5186 28.215L27.6278 42.5299C19.8468 50.5463 25.4453 63.9921 36.6522 64.0883H36.9095C40.5748 64.0883 44.2042 63.3719 47.5905 61.9799C50.9767 60.5879 54.0535 58.5477 56.6451 55.9757C59.2367 53.4037 61.2923 50.3503 62.6947 46.9899C64.097 43.6294 64.8186 40.0278 64.8181 36.3907V7.33983C64.819 6.37654 64.6286 5.42252 64.2578 4.53226C63.8871 3.64201 63.3432 2.83297 62.6572 2.15136C61.9712 1.46975 61.1567 0.928929 60.2601 0.559792C59.3634 0.190655 58.4023 0.000435285 57.4315 0Z" fill="url(#paint0_linear_10_179)"/>
<mask id="mask0_10_179" style="mask-type:luminance" maskUnits="userSpaceOnUse" x="9" y="0" width="56" height="65">
<path d="M57.4315 0H16.1602C14.2621 0.000879371 12.4419 0.74976 11.1 2.08199C9.7581 3.41421 9.00427 5.22073 9.00427 7.10434V36.5267C9.04104 43.1202 17.1763 46.3175 21.8422 41.6277L38.34 25.0443L27.3103 18.2948L30.0911 15.5354L43.3469 19.8868L48.7113 14.338C49.1263 13.8936 49.6845 13.6068 50.2897 13.5269C50.8949 13.447 51.5093 13.579 52.027 13.9002C52.3486 14.1098 52.6185 14.3886 52.8166 14.7159C53.0147 15.0432 53.136 15.4106 53.1713 15.7907C53.2066 16.1709 53.1551 16.5541 53.0207 16.9119C52.8862 17.2696 52.6722 17.5927 52.3946 17.857L46.7193 23.2599L51.1045 36.4139L48.3236 39.18L41.5186 28.215L27.6278 42.5299C19.8468 50.5463 25.4453 63.9921 36.6522 64.0883H36.9095C40.5748 64.0883 44.2042 63.3719 47.5905 61.9799C50.9767 60.5879 54.0535 58.5477 56.6451 55.9757C59.2367 53.4037 61.2923 50.3503 62.6947 46.9899C64.097 43.6294 64.8186 40.0278 64.8181 36.3907V7.33983C64.819 6.37654 64.6286 5.42252 64.2578 4.53226C63.8871 3.64201 63.3432 2.83297 62.6572 2.15136C61.9712 1.46975 61.1567 0.928929 60.2601 0.559792C59.3634 0.190655 58.4023 0.000435285 57.4315 0Z" fill="white"/>
</mask>
<g mask="url(#mask0_10_179)">
<g opacity="0.26">
<path d="M33.5338 46.6293C33.1901 46.4502 32.8201 46.326 32.4375 46.2611L31.7155 46.1019L29.6266 45.6509C29.3492 45.5912 29.0183 45.4784 28.9581 45.2031C28.9527 45.0375 28.9823 44.8725 29.045 44.7189C29.0818 44.5597 29.045 44.3474 28.8879 44.2977C28.7241 43.8433 28.2194 43.5647 27.7883 43.3723C27.3297 43.2136 26.8829 43.023 26.4513 42.8018C26.0724 42.5684 25.7685 42.2324 25.5756 41.8334C25.2815 41.2231 24.2387 41.2496 23.5702 41.316C23.2901 41.3536 23.0131 41.4113 22.7413 41.4884L21.127 41.9163L20.9565 41.9561H20.9298L20.7894 41.9826C20.4017 42.0444 20.0043 41.9841 19.653 41.8101C19.4903 41.7405 19.3427 41.6403 19.2185 41.515C19.0382 41.3129 18.9342 41.055 18.9244 40.7853C18.9059 40.5236 18.9059 40.2609 18.9244 39.9992C18.9444 39.7803 18.7238 39.6079 18.5066 39.5648C18.284 39.5512 18.0607 39.5512 17.8381 39.5648C17.727 39.5672 17.6176 39.537 17.5236 39.478C17.4297 39.419 17.3554 39.3338 17.31 39.2331C17.2825 39.1005 17.2965 38.9628 17.3501 38.8384C17.4571 38.5067 17.5072 38.0988 17.7913 37.9097C17.9618 37.797 18.1623 37.6344 18.1256 37.4354C18.1062 37.3799 18.0709 37.3311 18.024 37.2952C17.9771 37.2592 17.9206 37.2376 17.8615 37.2331C17.7449 37.225 17.6286 37.2516 17.5273 37.3094C16.9758 37.5847 16.6449 38.2646 16.0332 38.3475C15.7736 38.3571 15.5182 38.2804 15.3075 38.1296C15.0968 37.9788 14.9429 37.7625 14.8701 37.515C14.7368 37.0078 14.6983 36.4806 14.7565 35.9595C14.773 35.6848 14.8751 35.422 15.0488 35.2075C15.2224 34.993 15.459 34.8374 15.7257 34.7622C15.9901 34.7118 16.2587 34.6863 16.5279 34.6859C16.7883 34.6299 17.0393 34.5372 17.2733 34.4106C17.455 34.3458 17.6495 34.3243 17.8411 34.3479C18.0327 34.3716 18.216 34.4396 18.3762 34.5466C18.8709 34.8783 19.0447 35.5217 19.3789 36.0093C19.4725 36.1419 19.6162 36.2746 19.7733 36.2315C19.8316 36.2103 19.8815 36.1712 19.9158 36.1199C19.9501 36.0686 19.9669 36.0077 19.9638 35.9462C19.9638 35.8202 19.9638 35.6577 19.9638 35.535C19.9297 35.2042 19.9297 34.8708 19.9638 34.54C20.0007 34.2093 20.137 33.8973 20.3549 33.6445C20.7159 33.2531 21.3576 33.1337 21.4779 32.6196C21.6131 32.212 21.8952 31.8683 22.2701 31.6545C22.6402 31.4408 22.9893 31.1931 23.3129 30.9148C23.5436 30.6437 23.7318 30.3396 23.871 30.0127C23.9838 29.7976 24.1461 29.612 24.3447 29.4708C24.5433 29.3296 24.7726 29.2369 25.0141 29.2001C25.3484 29.1504 25.7662 29.2001 25.9801 28.9182C26.051 28.8042 26.0865 28.6721 26.0824 28.5383C26.0782 28.4044 26.0345 28.2747 25.9567 28.1653C25.8002 27.949 25.6246 27.747 25.4319 27.5617C25.3363 27.4688 25.2613 27.357 25.2118 27.2336C25.1623 27.1103 25.1394 26.978 25.1445 26.8453C25.1704 26.7158 25.2283 26.5948 25.3128 26.4929C25.3974 26.3911 25.5061 26.3116 25.6291 26.2615C25.8768 26.1645 26.1417 26.1182 26.4079 26.1255C26.8848 26.158 27.3638 26.1177 27.8284 26.0061C28.0606 25.9458 28.2677 25.8142 28.4202 25.6302C28.5726 25.4462 28.6626 25.2191 28.6773 24.9813C28.6573 24.5369 28.2763 24.2019 27.9554 23.8901C27.811 23.7511 27.6902 23.5898 27.5978 23.4125V23.3926C27.5978 23.376 27.5978 23.3594 27.5744 23.3395L27.5543 23.2931C27.4036 22.9372 27.3573 22.5463 27.4206 22.1654C27.4393 22.0841 27.4369 21.9995 27.4135 21.9194C27.3901 21.8393 27.3465 21.7665 27.2869 21.7077C27.1198 21.5916 26.8925 21.7077 26.7388 21.8404C26.585 21.9731 26.4346 22.1422 26.2307 22.1422C26.0269 22.1422 25.8096 21.8702 25.7895 21.6215C25.7695 21.3727 25.8397 21.124 25.823 20.8752C25.7996 20.4374 25.3952 20.1688 25.0542 19.8802C24.9365 19.7737 24.7898 19.7037 24.6324 19.6789C24.475 19.6542 24.3137 19.6757 24.1685 19.7409C23.98 19.8669 23.8306 20.0427 23.7373 20.2484C23.4818 20.6249 23.314 21.0532 23.246 21.5021C23.2193 21.8338 23.2995 22.1654 23.2661 22.4971C23.247 22.6801 23.1877 22.8567 23.0923 23.0145C22.9152 23.2643 22.7829 23.5426 22.7012 23.837C22.6756 24.1365 22.6127 24.4317 22.514 24.716C22.4996 24.7806 22.4723 24.8417 22.4339 24.8957C22.3954 24.9498 22.3466 24.9958 22.2901 25.031C22.2013 25.0625 22.104 25.061 22.0161 25.0269C21.9283 24.9927 21.8559 24.9283 21.8122 24.8453C21.7275 24.6779 21.6785 24.495 21.6684 24.308C21.5624 23.6591 21.3043 23.0439 20.9147 22.5122C20.5251 21.9804 20.0151 21.5469 19.4257 21.2467C18.9678 21.0212 18.8442 20.3877 19.0313 19.92C19.258 19.4593 19.6041 19.0667 20.034 18.7824C20.8061 18.1788 21.6183 17.6912 22.4104 17.1241L23.3663 16.4276C23.6753 16.2473 23.9214 15.9777 24.0716 15.6548C24.1169 15.4725 24.1504 15.2874 24.1719 15.1009C24.183 15.0079 24.2149 14.9187 24.2652 14.8395C24.3155 14.7603 24.383 14.6933 24.4626 14.6432C24.7467 14.4972 25.0776 14.7195 25.2982 14.9483C25.5973 15.3032 25.8552 15.6904 26.067 16.1025C26.1327 16.1889 26.1791 16.2881 26.2032 16.3937C26.2272 16.4992 26.2284 16.6087 26.2066 16.7147C26.1848 16.8207 26.1405 16.9209 26.0767 17.0087C26.0128 17.0964 25.9309 17.1697 25.8363 17.2236L24.6832 17.8504C24.5295 17.9333 24.349 18.0726 24.3991 18.2385C24.4493 18.4043 24.6966 18.4209 24.8804 18.4441C25.0403 18.4754 25.1923 18.5379 25.3277 18.6278C25.4631 18.7177 25.5791 18.8334 25.6692 18.9681C25.8901 19.2194 26.0614 19.5097 26.1739 19.8238C26.2134 19.9509 26.2985 20.0592 26.4131 20.1283C26.5276 20.1974 26.6637 20.2224 26.7956 20.1986C26.9264 20.1686 27.0467 20.1045 27.1442 20.013C27.2417 19.9214 27.3129 19.8058 27.3504 19.6779C27.4213 19.4203 27.4061 19.1468 27.307 18.8985C27.2134 18.6497 27.2167 18.3313 27.0162 18.1556C26.9893 18.1281 26.9698 18.0945 26.9594 18.0576C26.949 18.0208 26.9481 17.9819 26.9568 17.9447C26.9654 17.9074 26.9833 17.8729 27.0089 17.8442C27.0345 17.8156 27.0668 17.7938 27.1031 17.7808C27.1651 17.7705 27.2287 17.7767 27.2874 17.7989C27.3461 17.821 27.3979 17.8583 27.4373 17.9068C27.5209 17.9963 27.581 18.1058 27.6713 18.1854C27.7531 18.2508 27.8506 18.294 27.9543 18.3108C28.058 18.3277 28.1643 18.3176 28.2629 18.2816C28.3698 18.2385 28.567 18.0958 28.4467 17.7078C28.2997 17.27 28.1559 16.8322 28.0089 16.3811C27.8618 15.9301 27.7315 15.5387 27.5911 15.1175C27.4983 14.7735 27.2865 14.4729 26.9928 14.2684C26.384 13.8967 25.8794 13.3789 25.5255 12.7626C25.3917 12.484 25.2281 12.2205 25.0375 11.9766C24.8336 11.7477 24.4158 11.3796 24.1585 11.552C23.6709 11.8827 23.3058 12.3626 23.119 12.9185C23.036 13.13 23.022 13.362 23.0789 13.5818C23.176 13.7934 23.3032 13.9899 23.4566 14.1656C23.5165 14.2647 23.552 14.3764 23.5602 14.4917C23.5683 14.607 23.5488 14.7225 23.5034 14.8289C23.4473 15.0096 23.3577 15.1783 23.2393 15.3264C23.1812 15.4007 23.1039 15.458 23.0157 15.4925C22.9275 15.5269 22.8316 15.5371 22.738 15.5221C22.6262 15.4792 22.5272 15.4089 22.4501 15.3179C22.3729 15.2269 22.3202 15.118 22.2968 15.0014C22.1981 14.6566 22.1708 14.2956 22.2166 13.94L22.367 12.3348C22.368 12.1709 22.4167 12.0108 22.5074 11.8737C22.6864 11.7232 22.9112 11.6368 23.1458 11.6283C23.3764 11.5852 23.6371 11.4492 23.6438 11.217C23.6411 11.1517 23.6207 11.0883 23.5848 11.0335C23.549 10.9786 23.4989 10.9343 23.4399 10.9053C23.3199 10.8498 23.1849 10.8346 23.0555 10.8622C22.8605 10.9217 22.6791 11.0188 22.522 11.148C22.3648 11.2772 22.2349 11.4359 22.1397 11.615C21.7854 12.1656 21.762 12.8621 21.4712 13.4425C21.3475 13.7324 21.2948 14.0473 21.3175 14.3613C21.3427 14.6788 21.3029 14.998 21.2005 15.2999C21.1459 15.4476 21.0458 15.5745 20.9144 15.6626C20.783 15.7507 20.627 15.7955 20.4685 15.7908C20.1744 15.7543 19.9705 15.5022 19.7499 15.3065C19.4157 15.0147 18.9444 15.008 18.5433 14.8223C18.4508 14.7971 18.3535 14.7939 18.2594 14.8129C18.1654 14.8319 18.0771 14.8726 18.0019 14.9317C17.9269 14.9911 17.8405 15.0346 17.748 15.0597C17.6555 15.0848 17.5588 15.0909 17.4638 15.0777C17.3 15.0312 17.2031 14.872 17.0894 14.746C16.7886 14.4143 16.2772 14.4409 15.8327 14.3347C15.744 14.3217 15.6594 14.2888 15.5854 14.2385C15.5485 14.2127 15.5207 14.1762 15.5057 14.134C15.4908 14.0918 15.4894 14.0461 15.5018 14.0031C15.5244 13.9655 15.5555 13.9336 15.5926 13.91C15.6297 13.8864 15.6719 13.8717 15.7157 13.8671C15.8027 13.8576 15.8863 13.8281 15.9597 13.7808C15.995 13.7431 16.0177 13.6955 16.0249 13.6445C16.032 13.5935 16.0233 13.5415 15.9998 13.4956C15.8012 13.2297 15.5526 13.0045 15.2678 12.8323C15.1676 12.7693 14.9637 12.6565 14.8801 12.5868C14.782 12.5137 14.6672 12.4658 14.5459 12.4475C14.3698 12.4328 14.2016 12.3683 14.0613 12.2618C13.9623 12.1195 13.8836 11.9644 13.8273 11.8008C13.7576 11.695 13.6657 11.6056 13.5578 11.5386C13.4498 11.4716 13.3286 11.4286 13.2023 11.4127C12.9493 11.3457 12.6847 11.3344 12.4268 11.3796C12.0591 11.4969 11.6839 11.59 11.3038 11.6582C11.1393 11.6897 10.9703 11.6897 10.8058 11.6582C10.6454 11.6217 10.5184 11.426 10.388 11.3265C9.49227 10.62 8.50293 9.9368 7.91802 8.9617C7.70569 8.60833 7.36856 8.3459 6.97214 8.22539C6.58108 8.10599 6.06637 8.03303 5.73882 8.27515L4.73611 9.00813C4.59542 9.13083 4.4286 9.2204 4.24813 9.27015C4.04759 9.31659 3.81697 9.27015 3.64985 9.38955C3.59551 9.43207 3.5512 9.48587 3.52002 9.54717C3.48885 9.60848 3.47155 9.6758 3.46936 9.74444C3.43761 9.88419 3.43761 10.0292 3.46936 10.169C3.63648 10.6035 3.78688 11.1872 3.57966 11.6084C3.52712 11.6872 3.44977 11.7466 3.35968 11.7772C3.26959 11.8078 3.17183 11.8079 3.08165 11.7776C2.89782 11.7344 2.74742 11.625 2.55356 11.5686C2.41103 11.5234 2.26024 11.5098 2.11182 11.5287C1.9634 11.5476 1.82097 11.5986 1.69457 11.6781C1.4439 11.8373 1.39042 12.1059 1.29683 12.3878C1.26772 12.488 1.27368 12.595 1.31375 12.6914C1.35381 12.7878 1.42561 12.8678 1.51743 12.9185C1.85167 13.081 2.28282 12.7858 2.62709 12.8853C2.72067 12.8489 2.82763 12.945 2.83097 13.0479C2.82757 13.1495 2.78441 13.2459 2.71065 13.3165C2.33237 13.698 1.87664 13.9954 1.37371 14.1888C0.889067 14.421 0.344267 14.6763 0.143726 15.1838C0.0808204 15.3444 0.0542013 15.5167 0.0657516 15.6887C0.0773019 15.8606 0.126739 16.0279 0.210572 16.1788C0.270734 16.2849 0.344267 16.3778 0.394402 16.4906C0.444537 16.6033 0.514725 16.7692 0.434508 16.8587C0.386982 16.9115 0.354498 16.9759 0.340398 17.0453C0.326298 17.1146 0.331096 17.1865 0.354295 17.2534C0.381494 17.3177 0.428432 17.3719 0.488436 17.4082C0.54844 17.4445 0.618456 17.4612 0.68853 17.4557C0.812998 17.4559 0.936407 17.4784 1.05284 17.5221C1.11101 17.5443 1.16245 17.581 1.20224 17.6286C1.24204 17.6762 1.26885 17.7332 1.28012 17.794C1.29683 17.9698 1.14643 18.1257 1.00605 18.2219L0.197205 18.8852C0.116988 18.9482 0.0334273 19.0278 0.0434543 19.1273C0.0530447 19.1719 0.077291 19.2121 0.112381 19.2415C0.147471 19.2709 0.191416 19.2879 0.237311 19.2899C0.331206 19.2932 0.424395 19.2726 0.50804 19.2302C0.893794 19.0467 1.29397 18.8947 1.7046 18.7758C1.87321 18.7237 2.02706 18.6328 2.15366 18.5107C2.28026 18.3885 2.37605 18.2384 2.43324 18.0726C2.57027 17.741 2.63712 17.4093 2.80089 17.0776C2.962 16.7748 3.20813 16.5248 3.50947 16.3579C3.56525 16.3206 3.62807 16.2949 3.69413 16.2824C3.76019 16.2698 3.82813 16.2707 3.89384 16.2849C3.92326 16.2954 3.95001 16.3121 3.97222 16.3339C3.99443 16.3557 4.01155 16.3821 4.02239 16.4112C4.03322 16.4403 4.0375 16.4714 4.03492 16.5023C4.03235 16.5332 4.02298 16.5631 4.00748 16.5901C3.91144 16.744 3.78391 16.8762 3.63314 16.9781C3.48322 17.0819 3.37262 17.2326 3.31896 17.406C3.28553 17.5851 3.36909 17.7111 3.55292 17.7045C3.68915 17.7063 3.82403 17.6774 3.94736 17.62C4.0707 17.5625 4.17926 17.478 4.26484 17.3728C4.44464 17.1553 4.69737 17.0093 4.97676 16.9615C5.75553 16.9615 6.39057 17.7476 6.91198 18.3247C7.32993 18.7488 7.67942 19.2343 7.94811 19.7641C8.41582 20.7218 8.53396 21.8109 8.28234 22.8453C8.20251 23.1317 8.20263 23.4342 8.2827 23.7204C8.36277 24.0067 8.51977 24.266 8.7369 24.4705C8.88731 24.6098 9.07113 24.7292 9.14132 24.9216C9.18739 25.1277 9.16023 25.3433 9.06445 25.5319C8.65668 26.6164 8.06174 27.6147 7.93473 28.7656C7.80438 29.8336 7.79102 31.0541 8.47954 31.8833C9.24494 32.802 9.48224 33.9397 9.81648 35.0773C9.98227 35.6123 10.2255 36.1206 10.5384 36.5864C10.6354 36.729 10.7624 36.8849 10.9362 36.8915C10.9905 36.8928 11.0442 36.8792 11.0913 36.8523C11.1385 36.8254 11.1773 36.7862 11.2035 36.7389C11.2331 36.6303 11.2331 36.5159 11.2035 36.4073C11.1486 36.1483 11.0342 35.9054 10.8693 35.6975C10.5551 35.2199 10.0906 34.6726 10.0571 34.1022C10.0571 33.9231 10.0337 33.7407 10.0237 33.5616C10.0119 33.508 10.0119 33.4526 10.0237 33.399C10.0323 33.3726 10.0487 33.3493 10.0707 33.3322C10.0927 33.315 10.1194 33.3048 10.1474 33.3028C10.2008 33.3028 10.3279 33.3858 10.3011 33.4322C10.3345 34.1221 10.7757 34.7191 11.1969 35.2663C11.4409 35.598 11.8453 35.9297 11.9422 36.3243C12.1029 37.0378 12.4014 37.7136 12.8212 38.3144C13.2439 38.9233 13.8704 39.364 14.5893 39.5581C15.2211 39.7007 15.9263 39.8898 16.5613 39.9793C16.8849 40.0359 17.1892 40.1713 17.447 40.3733C17.7049 40.5753 17.9081 40.8377 18.0386 41.1369C18.1957 41.5083 18.2459 41.9494 18.5333 42.2347C18.8208 42.5199 19.3856 42.5199 19.8301 42.5663C19.9749 42.5817 20.1143 42.629 20.2382 42.705C20.362 42.7809 20.4671 42.8834 20.5457 43.005C20.6243 43.1266 20.6744 43.2642 20.6923 43.4075C20.7101 43.5509 20.6954 43.6964 20.649 43.8333C20.5284 44.0901 20.3756 44.3308 20.1945 44.5497C19.8201 45.1102 19.9304 45.8001 19.8134 46.4601C19.6329 47.4983 20.2145 48.5032 20.776 49.3987C21.2272 50.1184 21.4779 50.9874 22.1497 51.5048C22.9394 52.178 23.4345 53.1295 23.5301 54.1582C23.6672 55.1532 23.8944 56.3439 23.5067 57.2858C23.0522 58.3903 22.5909 59.6075 22.9218 60.7418C23.0923 61.3388 23.47 61.8628 23.6471 62.4632C23.7539 62.9505 23.8254 63.4449 23.861 63.9424C23.9045 64.4401 24.1179 64.9082 24.466 65.2691C24.8637 65.6273 25.1344 66.1248 25.5389 66.4664C25.6813 66.6038 25.8616 66.6961 26.0569 66.7317C26.1547 66.7451 26.254 66.722 26.3355 66.6669C26.4171 66.6117 26.475 66.5284 26.4981 66.4332C26.5017 66.3279 26.4763 66.2235 26.4246 66.1314C26.1839 65.6029 25.9444 65.0745 25.706 64.546C25.6705 64.4475 25.6589 64.3421 25.6723 64.2384C25.6856 64.1346 25.7235 64.0355 25.7829 63.949C25.8898 63.75 26.0536 63.5875 26.1739 63.3984C26.2415 63.3084 26.2864 63.2036 26.305 63.0929C26.3236 62.9821 26.3153 62.8686 26.2809 62.7617C26.1873 62.556 25.9466 62.43 25.8831 62.221C25.8655 62.1289 25.8709 62.0338 25.8988 61.9442C25.9268 61.8545 25.9765 61.7731 26.0436 61.7069C26.1639 61.5643 26.3176 61.4516 26.4279 61.3023C26.5567 61.1147 26.6169 60.8891 26.5987 60.6629C26.5804 60.4367 26.4848 60.2234 26.3277 60.0586C26.3057 59.8936 26.3246 59.7257 26.3828 59.5697C26.4411 59.4136 26.5369 59.274 26.6619 59.163C26.9054 58.9515 27.1777 58.7751 27.4707 58.639C27.7664 58.5033 28.027 58.3025 28.2328 58.052C28.2152 57.8932 28.2364 57.7325 28.2946 57.5836C28.3527 57.4346 28.4462 57.3018 28.567 57.1963C28.8177 56.9807 29.1185 56.8215 29.3592 56.5959C30.0276 55.9724 30.1112 54.9807 30.4989 54.1648C30.8765 53.3781 31.5317 52.7562 32.3405 52.4169C32.7046 51.8147 32.905 51.129 32.9221 50.4269C32.9124 50.0942 32.9314 49.7613 32.9789 49.4319C33.0072 49.2671 33.0768 49.1121 33.1814 48.9811C33.286 48.8501 33.4221 48.7473 33.5772 48.6823C33.9449 48.5695 34.2123 47.9692 34.1788 47.5878C34.1572 47.3882 34.0873 47.1968 33.9749 47.0299C33.8626 46.863 33.7113 46.7256 33.5338 46.6293Z" fill="white"/>
<path d="M12.7945 10.557C12.7021 10.6609 12.6339 10.7837 12.5946 10.9166C12.5553 11.0496 12.546 11.1895 12.5672 11.3265C12.5892 11.4642 12.642 11.5954 12.7219 11.7102C12.8017 11.825 12.9065 11.9205 13.0285 11.9898C13.1262 12.034 13.2182 12.0896 13.3025 12.1557C13.3451 12.1883 13.3752 12.2343 13.3879 12.2861C13.4007 12.3379 13.3953 12.3925 13.3727 12.4409C13.3025 12.5503 13.1388 12.5437 13.0151 12.4939C12.9028 12.4289 12.7739 12.3978 12.6441 12.4044C12.5764 12.4248 12.5169 12.4659 12.4743 12.5219C12.4316 12.578 12.408 12.646 12.4068 12.7162C12.4032 12.8567 12.4318 12.9962 12.4904 13.1241C12.5806 13.3828 12.7043 13.6714 12.965 13.7576C13.3427 13.8836 13.7337 13.5055 14.1214 13.5818C14.313 13.6395 14.4814 13.7555 14.6027 13.9135C14.7245 14.0698 14.8813 14.1958 15.0606 14.2816C15.1515 14.3214 15.2543 14.3254 15.348 14.2928C15.4417 14.2601 15.5194 14.1933 15.5653 14.1059C15.6288 13.94 15.5219 13.7543 15.5653 13.5785C15.5987 13.3497 15.8294 13.2137 15.9998 13.0545C16.4644 12.6167 16.5045 11.9135 16.5179 11.28C16.5266 11.1592 16.513 11.0378 16.4778 10.9218C16.4613 10.8632 16.4288 10.8103 16.384 10.7688C16.3392 10.7272 16.2838 10.6987 16.2238 10.6864C16.0032 10.6565 15.8594 10.8953 15.7191 11.0678C15.5787 11.2402 15.3146 11.489 15.1074 11.4227C14.9002 11.3563 14.6228 10.9484 14.459 10.7859C14.2894 10.5919 14.0812 10.4349 13.8473 10.3248C13.6686 10.2548 13.4727 10.2395 13.2851 10.2809C13.0974 10.3222 12.9266 10.4184 12.7945 10.557Z" fill="white"/>
<path d="M11.6247 10.9252C11.6884 10.9284 11.7519 10.9166 11.81 10.8906C11.8681 10.8647 11.9192 10.8254 11.9589 10.7759C12.0368 10.671 12.1061 10.5601 12.1662 10.4442C12.3677 10.1148 12.6681 9.85622 13.0251 9.70463C13.3231 9.62696 13.6004 9.48545 13.8373 9.29004C13.9499 9.15732 14.0056 8.98613 13.9924 8.81316C13.9793 8.64019 13.8984 8.47919 13.7671 8.36469C13.346 8.00317 12.711 8.36469 12.36 8.65656C11.8832 9.04913 11.5343 9.57311 11.3573 10.1623C11.3069 10.3061 11.2943 10.4602 11.3205 10.6101C11.3313 10.6877 11.3665 10.76 11.4211 10.8166C11.4757 10.8732 11.547 10.9112 11.6247 10.9252Z" fill="white"/>
<path d="M15.6656 37.2928C15.5586 37.2928 15.4182 37.326 15.4182 37.4321C15.4182 37.5383 15.4985 37.5615 15.5686 37.5947L16.2839 37.9263C16.6198 38.0992 16.9684 38.2467 17.3267 38.3675C17.446 38.4177 17.5781 38.4293 17.7044 38.4006C18.3227 38.2083 17.2732 37.6776 17.0961 37.598C16.646 37.3981 16.1587 37.2942 15.6656 37.2928Z" fill="white"/>
<path d="M18.8274 38.5697C18.6971 38.5697 18.54 38.5697 18.4698 38.6891C18.4469 38.7362 18.4391 38.7891 18.4475 38.8407C18.4559 38.8923 18.48 38.9401 18.5166 38.9777C18.5921 39.0505 18.6873 39.1001 18.7907 39.1203C18.9953 39.176 19.2096 39.1873 19.419 39.1535C19.6296 39.1203 19.917 38.9379 19.7131 38.7157C19.5093 38.4935 19.0748 38.5764 18.8274 38.5697Z" fill="white"/>
<path d="M38.8949 16.736C39.0133 16.5758 39.0902 16.3892 39.1188 16.1925C39.1474 15.9958 39.1267 15.7952 39.0587 15.6083C38.8949 15.2335 38.4737 14.8787 38.6442 14.5039C38.7679 14.2352 39.1188 14.1722 39.3996 14.076C39.7188 13.9435 39.983 13.707 40.1489 13.4057C40.3147 13.1043 40.3722 12.7558 40.312 12.4177C40.1681 11.6505 40.2081 10.8605 40.4287 10.1115C40.6494 9.36248 41.0445 8.67548 41.5821 8.10599C41.7285 7.96883 41.8525 7.80995 41.9498 7.63502C41.9986 7.54738 42.0211 7.4477 42.0145 7.34777C42.008 7.24785 41.9728 7.15186 41.913 7.07119C41.8282 6.99682 41.7245 6.94699 41.6131 6.9271C41.5017 6.90722 41.3869 6.91805 41.2813 6.95842C41.0711 7.03885 40.8525 7.09558 40.6296 7.12757C40.4023 7.12757 40.1483 6.9949 40.1382 6.77268C40.1282 6.55047 40.3588 6.39459 40.536 6.24865C40.7131 6.10272 40.8435 5.80753 40.663 5.67155C40.2157 5.31754 39.689 5.07574 39.1276 4.96662C38.5661 4.8575 37.9864 4.88428 37.4376 5.04469C36.7691 5.27023 36.1241 5.70803 35.4088 5.68813C35.0144 5.68813 34.6367 5.50571 34.2457 5.45928C33.8546 5.41285 33.3833 5.53556 33.243 5.9004C32.4609 6.42112 31.6554 7.15079 30.8732 7.67482C30.3619 8.00649 29.8104 8.41113 29.6533 9.0015C29.5973 9.21883 29.5987 9.44681 29.6572 9.66348C29.7157 9.88015 29.8295 10.0782 29.9875 10.2386C30.2241 10.4361 30.4793 10.6104 30.7496 10.7593C30.8836 10.8354 30.9997 10.939 31.0901 11.0631C31.1806 11.1872 31.2434 11.329 31.2743 11.4791C31.3545 12.2618 31.7155 13.0114 31.8425 13.8007C31.9425 14.3477 31.965 14.9059 31.9094 15.4591C31.8056 16.2745 31.4562 17.0398 30.9067 17.6547C30.7142 17.9153 30.5839 18.2158 30.5256 18.5337C30.4371 18.8297 30.4633 19.148 30.5992 19.4258C30.7396 19.6812 31.0069 19.8736 31.0671 20.1588C31.0838 20.2943 31.0838 20.4313 31.0671 20.5668C31.0527 20.7033 31.0896 20.8403 31.1707 20.9515C31.2533 21.0025 31.3465 21.034 31.4432 21.0438C31.54 21.0536 31.6377 21.0413 31.7289 21.0079C31.9929 20.8586 32.3004 21.114 32.4809 21.3396C32.6614 21.5651 32.9254 21.8636 33.2129 21.7707C33.5003 21.6779 33.5471 21.3263 33.6039 21.0444C33.8011 20.0958 34.5632 19.3529 35.3921 18.8454C36.221 18.338 37.1569 18.0063 37.9958 17.5187C38.3496 17.3263 38.6566 17.0591 38.8949 16.736Z" fill="white"/>
<path d="M36.338 22.9282C36.4612 22.7484 36.5975 22.5777 36.7458 22.4175C36.9463 22.2616 37.2705 22.172 37.3942 21.9399C37.4273 21.8727 37.4419 21.7981 37.4366 21.7236C37.4313 21.649 37.4063 21.5772 37.3641 21.5153C37.3208 21.4549 37.2656 21.4037 37.2018 21.365C37.138 21.3262 37.0671 21.3006 36.9931 21.2898C36.5285 21.2135 36.0873 21.6447 35.6261 21.5584C35.3721 21.5087 35.118 21.313 34.8874 21.4225C34.7994 21.4774 34.7344 21.562 34.7043 21.6607C34.6742 21.7595 34.6811 21.8657 34.7236 21.9598C34.8172 22.1456 34.9549 22.306 35.1247 22.4274C35.4122 22.6695 35.9603 23.3262 36.338 22.9282Z" fill="white"/>
<path d="M88.9064 11.5686C88.8429 11.489 88.7627 11.426 88.6992 11.3464C88.5737 11.1484 88.513 10.9167 88.5254 10.6831C88.5354 10.4519 88.5002 10.221 88.4218 10.0032C88.3777 9.89586 88.298 9.80675 88.1959 9.75064C88.0937 9.69452 87.9753 9.67479 87.8603 9.69471C87.5115 9.79911 87.1395 9.79911 86.7907 9.69471C86.276 9.51892 85.9718 8.96172 85.4538 8.76604C84.9935 8.62162 84.5232 8.51077 84.0467 8.43437C83.5353 8.28217 82.9954 8.24925 82.4691 8.33818C82.2069 8.39076 81.9702 8.5292 81.7968 8.73129C81.6235 8.93338 81.5236 9.1874 81.5132 9.45259C81.5132 9.53219 81.4463 9.60516 81.3761 9.64827C81.3058 9.68825 81.2288 9.71522 81.1488 9.72787L80.0993 9.96999C79.9523 10.0098 79.8005 10.0299 79.6481 10.0297C79.5725 10.0302 79.4975 10.0158 79.4275 9.98734C79.3575 9.95888 79.2939 9.9169 79.2404 9.86386C78.941 9.60961 78.6214 9.38 78.2844 9.1773C78.2137 9.10351 78.1163 9.06057 78.0137 9.0579C77.9318 9.07565 77.8565 9.11587 77.7965 9.17399C77.4871 9.40349 77.1 9.50459 76.7169 9.45591C75.8981 9.32781 75.0902 9.13821 74.3004 8.88875C73.9766 8.79516 73.6311 8.80678 73.3144 8.92192C73.2486 8.93823 73.1913 8.97848 73.1539 9.03469C73.1408 9.08167 73.1397 9.13118 73.1508 9.17869C73.1619 9.2262 73.1848 9.27019 73.2174 9.30665C73.3407 9.51029 73.4523 9.72068 73.5517 9.93683C73.5682 9.98133 73.5709 10.0297 73.5596 10.0758C73.5483 10.1218 73.5235 10.1635 73.4882 10.1955C73.419 10.2594 73.337 10.308 73.2475 10.3381L72.0142 10.8655C71.8039 10.9795 71.5646 11.0302 71.3257 11.0114C71.1309 10.9625 70.9609 10.8446 70.8477 10.6798C70.7165 10.5279 70.6043 10.3608 70.5135 10.1823C70.4786 10.118 70.431 10.0615 70.3736 10.0159C70.3161 9.9703 70.2501 9.93664 70.1793 9.91693C70.039 9.87739 69.8939 9.8573 69.7481 9.85722C69.5109 9.86965 69.2736 9.83584 69.0495 9.75772C68.966 9.71792 68.8624 9.78757 68.8256 9.87381C68.7961 9.96198 68.7771 10.0532 68.7688 10.1458C68.7388 10.2705 68.6769 10.3855 68.5891 10.4796C68.5013 10.5738 68.3905 10.6438 68.2674 10.6831C68.0195 10.7611 67.7533 10.7611 67.5054 10.6831C67.2449 10.6304 66.9914 10.5481 66.75 10.4376C66.5981 10.3579 66.4218 10.3368 66.2552 10.3785C66.0885 10.4201 65.9433 10.5216 65.8476 10.6632C65.7473 10.8224 65.6838 11.0512 65.4966 11.0844C65.3095 11.1176 65.1624 10.8953 65.1624 10.703C65.2006 10.5151 65.2743 10.3362 65.3796 10.1756C65.6905 9.54546 65.3195 8.84895 64.9652 8.24531C64.9323 8.19521 64.8891 8.15252 64.8386 8.11998C64.788 8.08744 64.7311 8.06579 64.6716 8.05642C64.6121 8.04704 64.5512 8.05015 64.493 8.06555C64.4348 8.08095 64.3804 8.10829 64.3335 8.14581C64.2366 8.23205 64.1764 8.36803 64.0594 8.42442C63.9922 8.45018 63.9186 8.45476 63.8486 8.43756C63.7786 8.42035 63.7157 8.38217 63.6684 8.32823C63.5862 8.20969 63.5168 8.08297 63.4611 7.95013C63.3357 7.70769 63.1576 7.49588 62.9397 7.32991C62.8291 7.24833 62.6949 7.20428 62.557 7.20428C62.4192 7.20428 62.285 7.24833 62.1743 7.32991C62.1007 7.41141 62.0506 7.51116 62.0294 7.61859C62.0083 7.72603 62.0167 7.83714 62.054 7.94018C62.1225 8.15828 62.2751 8.34069 62.4785 8.44763C62.5593 8.49596 62.6203 8.57099 62.6509 8.65956C62.6815 8.74812 62.6796 8.84454 62.6456 8.93187C62.5701 9.10534 62.43 9.24317 62.2545 9.31661C62.0841 9.39621 61.8969 9.436 61.7198 9.49902C61.2485 9.65822 60.9778 10.1093 60.5399 10.3448C60.4652 10.3858 60.4003 10.4422 60.3496 10.5103C60.2988 10.5784 60.2634 10.6566 60.2458 10.7395C60.2282 10.823 60.2292 10.9093 60.2488 10.9924C60.2685 11.0755 60.3062 11.1533 60.3594 11.2204C60.4397 11.3232 60.5566 11.3962 60.6402 11.499C60.6856 11.547 60.7155 11.6073 60.7263 11.6723C60.737 11.7373 60.728 11.8039 60.7004 11.8638C60.6703 11.902 60.6308 11.9318 60.5857 11.9504C60.5406 11.9689 60.4915 11.9757 60.443 11.97C60.3461 11.97 60.2491 11.9103 60.1522 11.9069C60.0756 11.9076 60.0009 11.9311 59.9377 11.9742C59.8746 12.0173 59.8259 12.0782 59.7979 12.1491C59.7429 12.2922 59.7429 12.4504 59.7979 12.5935C59.8525 12.7146 59.9258 12.8265 60.0152 12.9252C60.0973 13.023 60.1597 13.1356 60.199 13.2568C60.2181 13.3193 60.2195 13.3858 60.203 13.449C60.1865 13.5122 60.1527 13.5696 60.1054 13.615C60.0426 13.6535 59.9703 13.6738 59.8965 13.6738C59.8227 13.6738 59.7504 13.6535 59.6876 13.615C59.5573 13.5487 59.447 13.4459 59.3233 13.3729C59.1996 13.2999 59.0225 13.1938 58.9222 13.2999C58.8285 13.4251 58.7696 13.5724 58.7514 13.7273C58.7332 13.8821 58.7564 14.039 58.8186 14.1822C58.9189 14.4774 59.096 14.7394 59.1996 15.0346C59.3033 15.3298 59.3701 15.7311 59.1261 15.9301C59.0226 15.9985 58.8973 16.0268 58.7741 16.0097C58.6509 15.9926 58.5383 15.9312 58.4576 15.8372C58.3008 15.6532 58.1928 15.4331 58.1435 15.1971C58.0298 14.819 57.9162 14.4442 57.8092 14.0694C57.776 13.9306 57.7195 13.7983 57.6421 13.678C57.6027 13.6186 57.5492 13.5696 57.4862 13.5355C57.4233 13.5014 57.3529 13.4831 57.2811 13.4824C57.0271 13.4824 56.8934 13.7941 56.8801 14.0429C56.8466 14.7792 57.4951 15.4657 57.3614 16.1888C57.3368 16.2597 57.2887 16.3204 57.225 16.3607C57.1613 16.4011 57.0856 16.4188 57.0104 16.411C56.8589 16.3842 56.719 16.3125 56.6093 16.2054C56.5004 16.0979 56.3766 16.0063 56.2417 15.9334C56.1744 15.8978 56.0982 15.8823 56.0223 15.8888C55.9464 15.8953 55.874 15.9234 55.8139 15.9699C55.6701 16.0992 55.757 16.3015 55.7537 16.4806C55.7503 16.6597 55.6066 16.7526 55.4596 16.8123C55.3083 16.8498 55.1598 16.8975 55.015 16.9549C54.8936 17.048 54.7663 17.1333 54.634 17.2103C54.4401 17.2866 54.1159 17.2103 54.1126 17.0113C54.1059 16.934 54.0722 16.8615 54.0172 16.8064C53.9623 16.7513 53.8896 16.717 53.8118 16.7095C53.7141 16.7202 53.6211 16.7566 53.5424 16.8149C53.4636 16.8732 53.402 16.9513 53.3639 17.0412C53.2636 17.207 53.1868 17.4259 53.0297 17.5188C53.0008 17.5753 52.9553 17.6218 52.8992 17.652C52.8431 17.6822 52.779 17.6947 52.7155 17.6879C52.5885 17.6879 52.4648 17.6448 52.3378 17.6348C52.2808 17.6277 52.2229 17.6329 52.1681 17.65C52.1132 17.6672 52.0628 17.696 52.0203 17.7343C51.9788 17.7869 51.9563 17.8517 51.9563 17.9184C51.9563 17.9852 51.9788 18.05 52.0203 18.1025C52.0553 18.1916 52.0756 18.2856 52.0805 18.3811C52.0838 18.4288 52.0755 18.4766 52.0563 18.5205C52.0371 18.5644 52.0075 18.603 51.9702 18.6332C51.896 18.6738 51.8126 18.6951 51.7278 18.6951C51.6431 18.6951 51.5597 18.6738 51.4855 18.6332C51.383 18.6031 51.2729 18.6119 51.1765 18.6579C51.0802 18.7039 51.0045 18.7837 50.9641 18.8819C50.8906 19.0798 50.8314 19.2826 50.787 19.4889C50.7201 19.6879 50.5597 19.8902 50.3458 19.8869C50.1319 19.8836 49.9714 19.6779 49.8578 19.4922C49.7441 19.3065 49.5804 19.0544 49.4433 18.8289C49.389 18.7562 49.3555 18.6702 49.3464 18.5801C49.3557 18.5062 49.3897 18.4376 49.4431 18.3853C49.4964 18.3329 49.566 18.2999 49.6405 18.2916C49.7893 18.275 49.9399 18.2851 50.0851 18.3214C50.231 18.3585 50.3853 18.3457 50.5229 18.2849C50.6296 18.2104 50.7042 18.0988 50.7321 17.9723C50.7599 17.8458 50.7389 17.7136 50.6733 17.6017C50.6312 17.4877 50.5626 17.385 50.4732 17.3021C50.3838 17.2191 50.2761 17.1582 50.1586 17.1241C49.4901 16.9881 48.7749 16.8189 48.3437 16.2949C48.2198 16.0925 48.0615 15.913 47.8758 15.7642C47.7729 15.7125 47.6603 15.6828 47.5451 15.6771C47.4299 15.6714 47.3148 15.6898 47.2073 15.7311C46.9867 15.8074 46.8229 16.0064 46.6023 16.086C45.6498 16.4176 44.9947 17.2037 44.3964 18.0129C44.1231 18.471 43.9182 18.9659 43.7881 19.4822C43.6249 20.0114 43.2669 20.4601 42.7854 20.7393C42.6954 20.777 42.6119 20.8284 42.5381 20.8918C42.5012 20.9237 42.4723 20.9637 42.4537 21.0086C42.4351 21.0535 42.4274 21.1021 42.4311 21.1505C42.4624 21.2421 42.5015 21.3309 42.5481 21.4159C42.5699 21.512 42.5699 21.6117 42.5481 21.7077C42.5147 21.9565 42.518 22.2052 42.508 22.454C42.501 22.5852 42.5439 22.7142 42.6283 22.8155C42.6702 22.8659 42.7263 22.9028 42.7893 22.9217C42.8523 22.9406 42.9196 22.9405 42.9826 22.9216C43.1798 22.8553 43.2533 22.59 43.4472 22.5203C43.5508 22.4921 43.6615 22.5046 43.7561 22.5552C43.8508 22.6059 43.9221 22.6908 43.9552 22.7923C44.0354 22.9913 43.9552 23.2135 44.0221 23.4191C44.0889 23.6248 44.119 23.7774 44.1658 23.9565C44.161 24.0295 44.1786 24.1022 44.2164 24.1651C44.2541 24.2279 44.3102 24.2779 44.3772 24.3085C44.4442 24.339 44.519 24.3487 44.5916 24.3362C44.6643 24.3236 44.7314 24.2895 44.7841 24.2384C44.9761 24.1589 45.1526 24.0467 45.3055 23.9067C45.38 23.8293 45.4377 23.7376 45.4751 23.6372C45.5125 23.5368 45.5287 23.4298 45.5228 23.323C45.3924 22.2086 45.0348 20.8719 45.74 19.9897C45.8855 19.8072 46.0429 19.6343 46.2113 19.4723C46.3249 19.3547 46.457 19.2561 46.6023 19.1804C46.7472 19.1042 46.9165 19.0875 47.0736 19.134C47.152 19.1581 47.2212 19.2052 47.2719 19.2692C47.3226 19.3332 47.3526 19.4109 47.3577 19.4922C47.3389 19.644 47.2695 19.7853 47.1605 19.8935C47.0161 20.1003 46.861 20.2996 46.6959 20.4905C46.5799 20.6121 46.507 20.7679 46.4883 20.9343C46.4696 21.1007 46.5061 21.2686 46.5923 21.4126C46.6965 21.5424 46.8342 21.6417 46.9907 21.7001C47.1473 21.7585 47.3168 21.7738 47.4814 21.7442C47.8015 21.723 48.123 21.7521 48.434 21.8305C48.5409 21.857 48.6646 21.9134 48.6713 22.0195C48.6779 22.1256 48.5576 22.1986 48.454 22.2218C48.2201 22.2395 47.9884 22.2795 47.7621 22.3412C47.6232 22.4101 47.5145 22.5271 47.4566 22.6701C47.3987 22.8131 47.3956 22.9722 47.448 23.1173C47.5115 23.2666 47.3577 23.4258 47.2006 23.4722C47.0382 23.4952 46.8797 23.5398 46.7294 23.6049C46.482 23.7707 46.5088 24.1356 46.3951 24.4142C46.3101 24.5961 46.1769 24.7518 46.0098 24.8645C45.8426 24.9773 45.6477 25.0428 45.4459 25.0543C45.0365 25.0875 44.6244 25.0539 44.2259 24.9548C44.069 24.9152 43.9269 24.8316 43.8167 24.7139C43.7064 24.5963 43.6327 24.4496 43.6043 24.2914C43.5981 24.2119 43.5846 24.1331 43.5642 24.056C43.5531 24.0175 43.5312 23.983 43.501 23.9565C43.4708 23.9301 43.4335 23.9128 43.3937 23.9067C43.3436 23.909 43.2961 23.9296 43.2604 23.9645C43.2246 23.9994 43.2031 24.0461 43.1998 24.0958C43.1981 24.1952 43.2222 24.2935 43.27 24.381C43.3418 24.5125 43.3808 24.6593 43.3837 24.8088C43.3743 24.8939 43.3465 24.9759 43.302 25.0492C43.2576 25.1225 43.1976 25.1853 43.1263 25.2334C42.9844 25.3278 42.8332 25.4078 42.6751 25.4722C42.0456 25.7217 41.5322 26.1945 41.2345 26.7989C41.1754 26.8998 41.0958 26.9875 41.001 27.0566C40.9061 27.1256 40.7978 27.1745 40.6831 27.2002L39.9611 27.4589C39.7505 27.5385 39.5099 27.6479 39.4631 27.8668C39.4591 27.9681 39.4817 28.0687 39.5285 28.1588C39.5754 28.2489 39.645 28.3254 39.7305 28.3809C39.9031 28.4895 40.0483 28.6358 40.155 28.8088C40.1862 28.8844 40.1986 28.9665 40.191 29.0479C40.1835 29.1293 40.1562 29.2077 40.1115 29.2764C40.0629 29.3431 39.9992 29.3973 39.9254 29.4348C39.8516 29.4723 39.7699 29.4919 39.687 29.492C39.3589 29.4727 39.0302 29.5202 38.7211 29.6313C38.5372 29.7357 38.3787 29.8789 38.2568 30.0508C38.1349 30.2228 38.0526 30.4193 38.0159 30.6263C37.9412 30.8855 37.9451 31.1609 38.0271 31.4179C38.109 31.675 38.2655 31.9024 38.4768 32.0718C38.6882 32.2412 38.9451 32.3451 39.2156 32.3706C39.4861 32.3961 39.7582 32.342 39.9979 32.215C40.9036 31.7341 41.054 30.4074 41.9398 29.8933C42.4195 29.6716 42.9509 29.5833 43.4773 29.6379C44.3596 29.6379 44.9211 30.696 45.1484 31.5417C45.1885 31.6876 45.2353 31.8734 45.3757 31.9198C45.4329 31.9387 45.4941 31.9418 45.5529 31.929C45.6118 31.9162 45.666 31.8878 45.7099 31.8468C45.795 31.76 45.8641 31.659 45.9138 31.5483C46.0201 31.3814 46.0682 31.1845 46.0509 30.9878C45.9874 30.7125 45.6899 30.5732 45.4459 30.4306C45.1214 30.24 44.8412 29.9834 44.6237 29.6777C44.5756 29.6266 44.5422 29.5637 44.5269 29.4955C44.5116 29.4272 44.515 29.3562 44.5368 29.2897C44.5714 29.2361 44.6232 29.1955 44.6837 29.1745C44.7443 29.1535 44.8102 29.1531 44.871 29.1736C44.9869 29.2127 45.0929 29.276 45.1818 29.3593C46.0074 30.0227 46.7327 30.8618 46.98 31.8866C46.9988 32.01 47.0395 32.129 47.1004 32.2382C47.1301 32.2937 47.175 32.3397 47.2301 32.3709C47.2851 32.402 47.3479 32.4169 47.4112 32.414C47.4924 32.3931 47.5635 32.3443 47.6119 32.2763C47.6602 32.2083 47.6827 32.1254 47.6752 32.0425C47.6547 31.8779 47.6073 31.7177 47.5349 31.5682C47.4982 31.4933 47.4772 31.4117 47.4732 31.3285C47.4692 31.2453 47.4822 31.1621 47.5115 31.084C47.5858 31.0348 47.6738 31.01 47.7631 31.0129C47.8525 31.0159 47.9386 31.0466 48.0095 31.1006C48.149 31.2099 48.2631 31.348 48.3437 31.5052L49.0122 32.5931C49.0706 32.7025 49.1562 32.7953 49.2609 32.8626C49.3656 32.93 49.486 32.9696 49.6105 32.9778C49.8539 32.9818 50.0968 32.9528 50.3324 32.8916C50.5675 32.8265 50.816 32.8265 51.051 32.8916C51.2019 32.9489 51.3314 33.051 51.4217 33.1839C51.512 33.3169 51.5588 33.4742 51.5557 33.6345C51.555 33.7779 51.5152 33.9183 51.4404 34.041C51.3657 34.1636 51.2588 34.2639 51.1312 34.331C50.8543 34.435 50.5568 34.4736 50.2622 34.4438L48.8451 34.4106C48.5236 34.4173 48.2028 34.3782 47.8925 34.2946C47.5917 34.1951 47.2775 34.0093 46.9834 34.1188C46.8073 34.2082 46.6602 34.3449 46.5589 34.5135C46.4553 34.6822 46.2958 34.81 46.1077 34.875C45.9172 34.9148 45.6765 34.7622 45.7166 34.5698C45.5891 34.3935 45.4261 34.2453 45.238 34.1346C45.0499 34.0239 44.8407 33.953 44.6237 33.9264C44.4883 33.9291 44.355 33.8934 44.2393 33.8236C44.0655 33.681 44.1257 33.4123 44.1257 33.1901C44.1243 32.9946 44.0649 32.8038 43.9549 32.6416C43.845 32.4794 43.6893 32.353 43.5073 32.278C42.968 32.115 42.3887 32.1408 41.8662 32.351C41.3548 32.5597 40.8272 32.7271 40.2886 32.8518C40.0569 32.8693 39.8268 32.9037 39.6001 32.9546C39.4863 32.9801 39.3801 33.0314 39.2896 33.1045C39.1991 33.1776 39.127 33.2704 39.0787 33.3758C38.6843 34.4305 37.6482 35.1967 36.973 36.1022C36.4954 36.6818 36.1058 37.3276 35.8166 38.0192C35.7183 38.3848 35.67 38.7619 35.6729 39.1402L35.6127 39.8865C35.5977 40.0398 35.5977 40.1942 35.6127 40.3475C35.6369 40.613 35.7392 40.8656 35.9068 41.0739C36.3982 41.2099 36.6622 41.8234 36.8193 42.3044C36.9764 42.7853 37.1067 43.3159 37.5045 43.631C37.6825 43.7594 37.8863 43.8481 38.1021 43.891C38.3178 43.9339 38.5404 43.9301 38.7545 43.8798C39.1817 43.7781 39.5916 43.6149 39.9711 43.3955C40.8602 42.9378 42.01 43.4154 42.879 43.9096C43.0429 43.9867 43.2005 44.0766 43.3502 44.1783C43.5541 44.3441 43.7781 44.5498 43.7714 44.8118C43.728 45.0147 43.6524 45.2095 43.5474 45.3889C43.4925 45.5581 43.4955 45.7406 43.5559 45.908C43.6164 46.0753 43.7309 46.2182 43.8817 46.3142C44.7941 46.8847 45.1117 48.2578 44.744 49.2628C44.6103 49.6309 44.3897 49.9692 44.2928 50.3473C44.2288 50.5334 44.2237 50.7345 44.2781 50.9235C44.3324 51.1126 44.4437 51.2807 44.5969 51.4053C45.0381 51.6839 45.1284 52.2644 45.222 52.7718C45.2988 53.193 45.2688 53.6209 45.3222 54.0454C45.3327 54.2583 45.3867 54.4669 45.4809 54.6585C45.5751 54.8501 45.7076 55.0207 45.8704 55.1598C46.3751 55.528 45.8704 56.4865 46.2547 56.9807C46.3902 57.1185 46.5551 57.2244 46.7374 57.2904C46.9196 57.3565 47.1145 57.381 47.3076 57.3621C48.2062 57.3451 49.0631 56.9824 49.6974 56.3505C50.0316 56.0188 50.3959 55.7303 50.5296 55.3024C50.5772 55.0162 50.6685 54.7388 50.8003 54.4799C51.0005 54.267 51.2314 54.0849 51.4855 53.9393C51.6113 53.8627 51.708 53.7471 51.7606 53.6103C51.8132 53.4735 51.8187 53.3233 51.7763 53.1831C51.673 52.9284 51.6389 52.6512 51.6777 52.3793C51.7164 52.1075 51.8265 51.8505 51.9969 51.6342C52.2899 51.325 52.6098 51.042 52.9528 50.7884C53.267 50.4899 53.5177 50.0422 53.3673 49.6375C53.0681 48.7628 53.0275 47.8214 53.2503 46.9245C53.346 46.477 53.5441 46.0574 53.8292 45.698C54.1143 45.3386 54.4789 45.049 54.8947 44.8516C55.4531 44.5858 55.9136 44.1532 56.2116 43.6144C56.3856 43.3582 56.4786 43.0562 56.4786 42.7471C56.4786 42.4381 56.3856 42.1361 56.2116 41.8798C55.9546 41.6343 55.6235 41.4793 55.269 41.4387C54.9307 41.3995 54.6004 41.3089 54.2897 41.17C54.0225 41.0274 53.8187 40.7908 53.7182 40.5067C53.648 40.3077 53.4174 40.2281 53.267 40.0755C53.1107 39.9025 52.9801 39.7082 52.8793 39.4984C52.6854 39.1668 52.4949 38.7986 52.3044 38.447C51.9033 37.7141 51.5624 36.9048 51.168 36.1718C51.0962 36.0606 51.0505 35.9348 51.0343 35.8037C51.0291 35.738 51.0459 35.6724 51.0822 35.6172C51.1185 35.562 51.1722 35.5203 51.2348 35.4985C51.3886 35.4653 51.5223 35.5947 51.6225 35.7141C52.4652 36.7169 53.1596 37.8336 53.6848 39.0308C53.8189 39.4701 54.0004 39.8938 54.2262 40.2944C54.3537 40.4873 54.5265 40.6466 54.7296 40.7587C54.9328 40.8707 55.1603 40.9322 55.3927 40.9379C55.7551 40.8943 56.1002 40.7596 56.3954 40.5465L57.8059 39.6908C58.1127 39.5245 58.3941 39.3157 58.6415 39.0706C58.7652 38.9469 58.8616 38.7989 58.9243 38.6362C58.987 38.4734 59.0148 38.2994 59.0058 38.1253C58.9894 37.9519 58.9144 37.7891 58.7931 37.6633C58.6718 37.5375 58.5112 37.456 58.3373 37.4321C57.8323 37.4345 57.3313 37.3434 56.86 37.1635C56.7226 37.1286 56.5952 37.0625 56.4879 36.9704C56.3806 36.8783 56.2963 36.7628 56.2417 36.6328C56.1456 36.3134 55.9367 36.0391 55.6534 35.86C55.5682 35.8114 55.4886 35.7535 55.4161 35.6876C55.3797 35.6546 55.3525 35.6128 55.3373 35.5663C55.322 35.5198 55.3192 35.4701 55.3292 35.4222C55.3427 35.3837 55.3652 35.3489 55.3948 35.3207C55.4244 35.2925 55.4604 35.2716 55.4997 35.2597C55.5764 35.2364 55.6573 35.2296 55.737 35.2398C55.8837 35.2453 56.0275 35.2826 56.1581 35.3493C56.4322 35.5018 56.5893 35.8269 56.8266 36.0126C57.0731 36.2139 57.3869 36.3158 57.7056 36.2978C57.8677 36.2604 58.0338 36.2425 58.2003 36.2448C58.3943 36.299 58.572 36.3991 58.7183 36.5366C58.7924 36.6038 58.8807 36.6536 58.9767 36.6823C59.0728 36.711 59.1741 36.7179 59.2732 36.7025C59.818 36.5333 60.433 36.7887 61.0012 36.8318C61.1572 36.8309 61.3115 36.8649 61.4524 36.9313C61.5235 36.9646 61.582 37.0196 61.6192 37.0882C61.6565 37.1568 61.6707 37.2355 61.6596 37.3127C61.6193 37.454 61.6249 37.6042 61.6758 37.7421C61.7266 37.8799 61.8201 37.9983 61.9427 38.0803C62.0654 38.1623 62.2111 38.2038 62.3589 38.1987C62.5067 38.1937 62.6492 38.1425 62.7659 38.0524C62.9397 37.923 63.1837 38.0988 63.2673 38.2978C63.3277 38.5044 63.347 38.7207 63.3241 38.9346C63.3202 39.3808 63.4078 39.8231 63.5815 40.2347C63.8215 40.8378 64.1216 41.4155 64.4772 41.9594C64.5909 42.1219 64.7279 42.2911 64.9251 42.3143C65.0308 42.3102 65.1324 42.272 65.2144 42.2056C65.2963 42.1392 65.3544 42.0481 65.3796 41.9461C65.4242 41.7403 65.4422 41.5297 65.4331 41.3193C65.4504 40.9963 65.538 40.6809 65.6897 40.3946C65.8414 40.1084 66.0538 39.8581 66.3122 39.661C66.6464 39.3989 66.9405 39.0507 67.2948 38.7953C67.4625 38.701 67.5923 38.5522 67.6625 38.3741C67.7026 38.2182 67.6625 38.0424 67.7527 37.9097C67.7889 37.8679 67.8351 37.8356 67.887 37.8159C67.939 37.7963 67.9951 37.7897 68.0502 37.797C68.1596 37.8096 68.2659 37.841 68.3644 37.8898C68.7133 38.013 69.033 38.206 69.3036 38.457C69.47 38.6125 69.5912 38.8095 69.6545 39.0275C69.6852 39.2522 69.7344 39.474 69.8016 39.6908C69.8398 39.8012 69.9113 39.8973 70.0063 39.9661C70.1014 40.0349 70.2154 40.0731 70.333 40.0755C70.4466 40.0755 70.5536 40.0158 70.6672 40.0192C70.7468 40.0251 70.8234 40.0518 70.8892 40.0967C70.9549 40.1416 71.0075 40.2029 71.0416 40.2745C71.1069 40.4195 71.1476 40.5741 71.1619 40.7322C71.2689 41.5017 71.1619 42.3342 71.4761 43.0539C71.581 43.2653 71.7005 43.4692 71.8337 43.6642L72.4253 44.5696C72.5374 44.7221 72.7012 44.8293 72.8866 44.8715C72.9403 44.8957 72.9995 44.9054 73.0582 44.8996C73.1169 44.8937 73.173 44.8726 73.2208 44.8383C73.2469 44.8043 73.2642 44.7644 73.2712 44.7222C73.2782 44.68 73.2746 44.6367 73.2609 44.5962C73.2293 44.5171 73.1841 44.4442 73.1272 44.3806C72.9467 44.1484 72.8197 43.8897 72.6593 43.6443L72.1713 42.9146C72.0197 42.7112 71.8972 42.4879 71.807 42.2513C71.7632 42.1327 71.7445 42.0064 71.752 41.8803C71.7595 41.7542 71.793 41.631 71.8504 41.5183C71.924 41.3923 71.9908 41.2828 72.1379 41.2662C72.2124 41.2583 72.2878 41.2704 72.356 41.3014C72.4242 41.3323 72.4828 41.3809 72.5256 41.442C72.5256 41.5979 72.7261 41.6841 72.8765 41.7306C73.0317 41.7574 73.1732 41.8358 73.2776 41.9528C73.3578 42.0755 73.3311 42.248 73.418 42.3674C73.4518 42.4135 73.4993 42.4479 73.5539 42.4658C73.6085 42.4836 73.6673 42.484 73.7221 42.4669C73.7758 42.447 73.822 42.4112 73.8543 42.3643C73.8866 42.3174 73.9035 42.2617 73.9026 42.2048C73.9138 42.12 73.9428 42.0383 73.9877 41.9652C74.0326 41.8921 74.0924 41.8291 74.1633 41.7803C74.2896 41.7086 74.4073 41.6229 74.5143 41.5249C74.604 41.421 74.6532 41.2886 74.6532 41.1518C74.6532 41.015 74.604 40.8826 74.5143 40.7787C73.9693 40.2891 73.5704 39.6604 73.3612 38.9611C73.3246 38.8328 73.3178 38.6978 73.3411 38.5664C73.3538 38.5013 73.3832 38.4404 73.4265 38.3899C73.4698 38.3393 73.5256 38.3007 73.5884 38.2779C73.9182 38.2052 74.2537 38.1608 74.5911 38.1452C74.8014 38.1301 75.0096 38.0945 75.2128 38.0391C75.4151 37.9846 75.5951 37.8687 75.7276 37.7074C76.0212 37.3776 76.3735 37.1044 76.767 36.9015C76.8598 36.8559 76.9393 36.7874 76.9978 36.7027C77.0564 36.6179 77.092 36.5196 77.1013 36.4172C77.0884 36.1925 77.1558 35.9705 77.2918 35.7904C77.4368 35.6029 77.5686 35.4056 77.6862 35.2C77.7483 35.1004 77.7812 34.9855 77.7812 34.8683C77.7812 34.7512 77.7483 34.6363 77.6862 34.5367C77.5539 34.3775 77.4551 34.1937 77.3954 33.9961C77.3733 33.8454 77.3588 33.6938 77.3519 33.5417C77.3083 33.2024 77.1463 32.8891 76.894 32.6561C76.7901 32.5528 76.7271 32.4159 76.7167 32.2703C76.7063 32.1247 76.7491 31.9803 76.8372 31.8634C76.9408 31.7473 77.1079 31.6644 77.138 31.5085C77.1681 31.3527 77.0344 31.1968 76.894 31.1039C76.7397 31.0287 76.6082 30.9143 76.513 30.7722C76.4725 30.6756 76.4674 30.568 76.4985 30.468C76.5297 30.3681 76.5951 30.2821 76.6835 30.225C76.7765 30.1751 76.8793 30.1457 76.9849 30.1388C77.0905 30.132 77.1963 30.1478 77.2951 30.1852C77.628 30.3289 77.9081 30.5709 78.0973 30.8784C78.3204 31.2564 78.503 31.6566 78.6421 32.0724C78.6821 32.1936 78.7535 32.3023 78.8493 32.3875C78.9453 32.4449 79.0594 32.4648 79.1694 32.4434C79.2793 32.4219 79.3773 32.3606 79.4442 32.2714C79.5086 32.1797 79.5523 32.0755 79.5725 31.9656C79.5927 31.8557 79.5888 31.7428 79.5612 31.6346C79.4667 31.3565 79.3128 31.102 79.11 30.8883C78.9752 30.7399 78.8738 30.5646 78.8125 30.3742C78.7706 30.0394 78.8474 29.7005 79.0298 29.4157C79.1663 29.092 79.3573 28.7936 79.5946 28.5335C79.7718 28.3643 79.9824 28.2383 80.1662 28.0791C80.2635 28.0052 80.3452 27.9129 80.4066 27.8076C80.4679 27.7023 80.5078 27.5861 80.5238 27.4655C80.5806 26.3942 81.0085 25.3893 80.7778 24.3445C80.6595 23.8711 80.4581 23.422 80.1829 23.0178C80.0122 22.7035 79.7437 22.4522 79.4175 22.3014L79.2437 22.2384C79.1201 22.1843 79.0124 22.0998 78.9308 21.9929C78.8492 21.8861 78.7963 21.7603 78.7773 21.6276C78.7582 21.4948 78.7735 21.3594 78.8218 21.2342C78.8701 21.1089 78.9497 20.998 79.0532 20.9117C79.1689 20.8014 79.2523 20.6621 79.2947 20.5085C79.3371 20.3549 79.3368 20.1929 79.2938 20.0394C79.2393 19.8692 79.22 19.6899 79.237 19.5121C79.2817 19.3705 79.38 19.2517 79.5111 19.1804C79.6422 19.1067 79.7827 19.0509 79.9289 19.0146C80.5372 18.8355 81.1956 18.9615 81.8106 18.8023C82.0474 18.7556 82.265 18.6402 82.4356 18.4707C82.5185 18.3853 82.5662 18.2723 82.5693 18.1538C82.5724 18.0353 82.5307 17.92 82.4524 17.8305C82.4323 17.5387 82.4089 17.2269 82.3889 16.935C82.3671 16.8077 82.3671 16.6776 82.3889 16.5503C82.403 16.4874 82.4327 16.429 82.4753 16.3804C82.5179 16.3317 82.5721 16.2944 82.6328 16.2717C82.9236 16.1821 83.2178 16.5636 83.5052 16.4574C83.6121 16.5171 83.7158 16.3845 83.7492 16.2684C83.7826 16.1523 83.8027 15.9997 83.9163 15.9367C83.9464 15.9275 83.978 15.9244 84.0093 15.9275C84.0406 15.9305 84.0709 15.9397 84.0986 15.9546C84.1263 15.9694 84.1507 15.9895 84.1705 16.0138C84.1903 16.038 84.205 16.0659 84.2138 16.0959C84.247 16.2175 84.247 16.3458 84.2138 16.4674C84.1503 16.736 84.0901 17.0047 84.0299 17.27C83.8528 18.0362 83.6757 18.8056 83.5018 19.5718C83.4562 19.7868 83.4558 20.0088 83.5006 20.224C83.5455 20.4392 83.6347 20.6428 83.7626 20.8222C84.207 21.5184 84.6066 22.2418 84.9591 22.988C84.9988 23.0842 85.0709 23.1639 85.163 23.2135C85.3468 23.2798 85.524 23.0676 85.5273 22.8818C85.5036 22.6897 85.4634 22.5 85.407 22.3147C85.3368 21.8504 85.6543 21.4291 85.7914 20.988C85.8744 20.6526 85.883 20.3034 85.8167 19.9644C85.7503 19.6253 85.6105 19.3047 85.407 19.0245C85.173 18.6697 84.8087 18.4043 84.7385 17.9831C84.7047 17.7723 84.74 17.5563 84.8393 17.367C84.9386 17.1777 85.0966 17.0251 85.29 16.9317C85.4532 16.8778 85.6229 16.8454 85.7947 16.8355C85.9675 16.823 86.1343 16.767 86.2793 16.673C86.3506 16.6235 86.4042 16.5528 86.4324 16.4712C86.4607 16.3895 86.4621 16.3011 86.4364 16.2186C86.3986 16.0708 86.3973 15.916 86.4328 15.7676C86.4683 15.6191 86.5395 15.4814 86.6403 15.3662C86.8437 15.1363 86.976 14.853 87.0213 14.5503C87.0213 14.3911 86.9745 14.2187 87.0815 14.0926C87.1423 14.0447 87.2059 14.0004 87.272 13.96C87.3097 13.9235 87.3382 13.8787 87.3552 13.8292C87.3722 13.7797 87.3771 13.727 87.3696 13.6752C87.3621 13.6235 87.3424 13.5743 87.3121 13.5315C87.2818 13.4888 87.2417 13.4537 87.1951 13.4293C87.0744 13.3837 86.9649 13.313 86.8738 13.2221C86.7827 13.1312 86.7123 13.022 86.667 12.9019C86.6136 12.6583 86.6136 12.406 86.667 12.1623C86.682 11.9306 86.7457 11.7047 86.8542 11.499C86.9105 11.3994 86.9959 11.3192 87.0992 11.2688C87.2024 11.2185 87.3186 11.2004 87.4324 11.2171C87.6578 11.2392 87.8722 11.3243 88.0508 11.4625C88.1408 11.5681 88.2245 11.6789 88.3015 11.7942C88.3817 11.9104 88.4997 11.9958 88.6357 12.0363C88.7034 12.0521 88.7746 12.043 88.8361 12.0106C88.8975 11.9783 88.9451 11.925 88.9699 11.8605C88.9831 11.8103 88.9842 11.7578 88.9731 11.7071C88.9621 11.6564 88.9393 11.609 88.9064 11.5686ZM52.8091 30.2615C52.7515 30.3743 52.6603 30.4666 52.5478 30.526C52.4353 30.5854 52.3071 30.6088 52.1807 30.5931C51.9292 30.5565 51.6811 30.4999 51.4387 30.424C51.1529 30.3655 50.8575 30.3719 50.5745 30.4425C50.2915 30.5131 50.0282 30.6463 49.8043 30.8319C49.6138 30.9911 49.3163 31.2863 49.0556 31.0674C48.981 30.9757 48.9324 30.8659 48.9148 30.7493C48.8972 30.6327 48.9112 30.5135 48.9554 30.4041C49.1375 29.8267 49.4668 29.3058 49.9113 28.8917L50.2455 28.5998C50.306 28.5407 50.3746 28.4904 50.4494 28.4506C50.7101 28.3312 51.0042 28.5003 51.2382 28.6628L52.3077 29.4025C52.4652 29.4979 52.6053 29.619 52.7222 29.7607C52.7751 29.8316 52.8102 29.914 52.8248 30.0011C52.8393 30.0881 52.8328 30.1774 52.8057 30.2615H52.8091ZM56.4556 32.089C56.1214 32.3045 55.6969 32.0657 55.5164 31.7573C55.3673 31.4138 55.2823 31.0464 55.2657 30.6727C55.1454 29.9364 54.3031 29.1703 54.6607 28.4074C54.7287 28.2627 54.8427 28.144 54.9852 28.0697C55.1277 27.9955 55.2908 27.9696 55.4495 27.9962C55.6059 28.032 55.7425 28.1258 55.8314 28.2584C55.9203 28.391 55.9546 28.5523 55.9275 28.7093C55.8707 28.9414 55.6735 29.1172 55.5933 29.3461C55.5572 29.5198 55.5662 29.6999 55.6194 29.8692C55.6726 30.0386 55.7682 30.1919 55.8974 30.3145C56.1554 30.5579 56.3863 30.8281 56.5859 31.1205C56.6841 31.2711 56.7246 31.4516 56.7001 31.6293C56.6755 31.807 56.5876 31.9701 56.4522 32.089H56.4556ZM58.5111 29.3792C58.4701 29.4702 58.4077 29.5502 58.3292 29.6125C58.2507 29.6748 58.1584 29.7176 58.0599 29.7374C57.9943 29.735 57.9299 29.7188 57.8711 29.6897C57.8123 29.6607 57.7605 29.6195 57.719 29.5689C57.6776 29.5184 57.6475 29.4596 57.6308 29.3966C57.614 29.3335 57.6111 29.2677 57.6221 29.2034C57.639 29.1404 57.6625 29.0792 57.6922 29.021C57.7257 28.9481 57.7591 28.8784 57.7959 28.8054C57.8326 28.7325 57.846 28.6993 57.8727 28.6462C57.9152 28.5145 58.0058 28.4033 58.1268 28.3345C58.7451 28.0824 58.6682 29.1039 58.5078 29.3792H58.5111Z" fill="white"/>
<path d="M39.5099 24.5236C39.7117 24.7462 39.8205 25.0368 39.814 25.3361C39.7572 25.7474 38.5139 26.6794 39.4798 26.7822C40.1483 26.8552 41.278 26.3444 40.9538 25.5086C40.79 25.094 40.3455 24.8453 40.1817 24.4406C40.1128 24.1751 40.0658 23.9045 40.0413 23.6314C39.9812 23.3627 39.7806 23.0841 39.5065 23.0908C39.2325 23.0974 39.0219 23.4589 39.0754 23.7541C39.158 24.0406 39.3068 24.3041 39.5099 24.5236Z" fill="white"/>
<path d="M37.9456 26.0559C37.9548 26.1481 37.9832 26.2373 38.0292 26.3179C38.0518 26.3577 38.083 26.3921 38.1205 26.4184C38.1581 26.4448 38.2011 26.4626 38.2465 26.4705C38.4035 26.4904 38.5339 26.3577 38.6375 26.2383C38.7929 26.0772 38.9195 25.891 39.0119 25.6878C39.189 25.23 38.8782 24.7458 38.3634 24.9979C38.181 25.0952 38.0442 25.2595 37.9824 25.4556C37.9219 25.6499 37.9093 25.8558 37.9456 26.0559Z" fill="white"/>
<path d="M53.7984 15.5652C53.8544 15.6037 53.9208 15.6244 53.9889 15.6244C54.057 15.6244 54.1235 15.6037 54.1795 15.5652C54.3767 15.3729 54.0925 15.0876 54.0056 14.9019C53.9358 14.7365 53.8843 14.5642 53.8519 14.3878C53.7583 14.0362 53.3706 13.4724 52.9461 13.824C52.8947 13.8708 52.8535 13.9276 52.8253 13.991C52.7971 14.0544 52.7825 14.1229 52.7823 14.1921C52.7835 14.3318 52.8142 14.4697 52.8726 14.5968C53.0501 15.0219 53.3799 15.3669 53.7984 15.5652Z" fill="white"/>
<path d="M53.9321 12.7494C54.0898 12.2714 54.4024 11.8585 54.8212 11.5753C55.2089 11.29 55.6267 10.9385 55.6634 10.4609C55.6802 10.2453 55.5465 9.97663 55.3292 9.99653C55.2151 10.0207 55.1133 10.0842 55.0418 10.1756L53.4274 11.834C53.1701 12.096 52.8893 12.4277 52.9762 12.7825C53.1099 13.3298 53.7616 13.1905 53.9321 12.7494Z" fill="white"/>
<path d="M55.9609 49.7205C55.8779 49.7583 55.8046 49.8144 55.7467 49.8845C55.6888 49.9546 55.6478 50.0369 55.6267 50.1251C55.5795 50.3066 55.494 50.4762 55.376 50.6226C55.1587 50.8315 54.7877 50.815 54.5805 51.0339C54.3733 51.2528 54.4234 51.5579 54.3699 51.8266C54.328 52.042 54.2193 52.2391 54.0591 52.3904C53.9765 52.4579 53.91 52.5427 53.8643 52.6388C53.8186 52.7348 53.7949 52.8397 53.7949 52.9459C53.7949 53.0521 53.8186 53.157 53.8643 53.2531C53.91 53.3491 53.9765 53.434 54.0591 53.5015C54.2008 53.6248 54.3788 53.6995 54.5667 53.7144C54.7545 53.7294 54.9422 53.6838 55.1019 53.5844C55.2591 53.4542 55.3869 53.2928 55.4773 53.1106C55.5677 52.9284 55.6186 52.7293 55.6267 52.5264C55.6407 52.121 55.7267 51.7213 55.8807 51.3456C56.0078 51.1521 56.1462 50.966 56.2951 50.7884C56.4436 50.6 56.5162 50.3636 56.499 50.1251C56.4936 50.0622 56.4749 50.0011 56.4442 49.9458C56.4135 49.8904 56.3714 49.8422 56.3206 49.804C56.2699 49.7659 56.2117 49.7387 56.1497 49.7243C56.0877 49.7099 56.0234 49.7086 55.9609 49.7205Z" fill="white"/>
</g>
</g>
<path d="M6.76825 79.8724L10.9462 70.5857H13.0886L17.2799 79.8724H15.0038L11.5745 71.6603H12.4335L8.99091 79.8724H6.76825ZM8.85722 77.8824L9.43209 76.2473H14.2551L14.8434 77.8824H8.85722Z" fill="white"/>
<path d="M19.155 71.7266C18.8105 71.7404 18.4741 71.6215 18.2158 71.395C18.1003 71.2893 18.0082 71.1611 17.9451 71.0184C17.8821 70.8757 17.8496 70.7216 17.8496 70.5658C17.8496 70.41 17.8821 70.2558 17.9451 70.1131C18.0082 69.9704 18.1003 69.8422 18.2158 69.7366C18.4741 69.51 18.8105 69.3912 19.155 69.4049C19.4949 69.3918 19.8278 69.5027 20.0908 69.7167C20.2079 69.8158 20.301 69.9396 20.3635 70.079C20.426 70.2185 20.4561 70.3701 20.4518 70.5227C20.4567 70.682 20.4276 70.8405 20.3666 70.988C20.3055 71.1354 20.2139 71.2684 20.0975 71.3784C19.9714 71.4953 19.8231 71.5863 19.6614 71.6461C19.4996 71.7058 19.3275 71.7332 19.155 71.7266ZM18.1088 79.8724V72.7249H20.1978V79.8724H18.1088Z" fill="white"/>
<path d="M22.1397 79.8724V72.725H24.1451V74.7415L23.8644 74.1578C24.0598 73.6716 24.4172 73.2665 24.8771 73.0102C25.4098 72.7349 26.0048 72.6001 26.6051 72.6188V74.5292L26.3644 74.5093H26.1372C25.872 74.4867 25.6051 74.5234 25.3562 74.6168C25.1072 74.7101 24.8826 74.8577 24.6988 75.0487C24.5149 75.2397 24.3767 75.4692 24.2942 75.7202C24.2117 75.9713 24.187 76.2376 24.222 76.4994V79.8757L22.1397 79.8724Z" fill="white"/>
<path d="M27.2535 74.4762V72.8841H32.2469V74.4762H27.2535ZM31.0571 79.9752C30.3373 80.0193 29.628 79.7878 29.0751 79.3285C28.6004 78.8995 28.3631 78.2605 28.3631 77.4114V71.1429H30.4521V77.3882C30.444 77.5143 30.461 77.6408 30.5023 77.7603C30.5436 77.8798 30.6084 77.9901 30.6928 78.0847C30.781 78.1693 30.8859 78.2348 31.001 78.2771C31.1161 78.3193 31.2387 78.3374 31.3612 78.3301C31.6642 78.339 31.9612 78.2454 32.2035 78.0648L32.765 79.5275C32.531 79.683 32.2705 79.7954 31.9963 79.8591C31.6892 79.9358 31.3737 79.9748 31.0571 79.9752Z" fill="white"/>
<path d="M33.9348 79.8724V72.725H35.9403V74.7415L35.6595 74.1578C35.8601 73.6695 36.2235 73.2644 36.6889 73.0102C37.2216 72.7349 37.8166 72.6001 38.4169 72.6188V74.5292L38.1763 74.5093H37.949C37.4403 74.4864 36.9427 74.6613 36.5619 74.9969C36.3725 75.1972 36.2276 75.4347 36.1366 75.6941C36.0457 75.9535 36.0106 76.229 36.0338 76.5027V79.8791L33.9348 79.8724Z" fill="white"/>
<path d="M41.405 79.9752C40.9072 79.9876 40.413 79.8901 39.9577 79.69C39.5831 79.5206 39.2635 79.2506 39.0353 78.9106C38.8275 78.5773 38.7175 78.1931 38.7175 77.8012C38.7175 77.4092 38.8275 77.0251 39.0353 76.6917C39.2829 76.3445 39.6333 76.0825 40.038 75.9422C40.6081 75.7413 41.2114 75.649 41.8161 75.6702H43.7313V76.8775H42.0434C41.6916 76.8426 41.3382 76.9267 41.0407 77.1163C40.953 77.1899 40.883 77.282 40.8356 77.3858C40.7882 77.4897 40.7646 77.6026 40.7666 77.7166C40.7625 77.8392 40.789 77.9609 40.8438 78.0709C40.8986 78.1808 40.98 78.2756 41.0808 78.3467C41.3354 78.5146 41.6379 78.5961 41.9431 78.5789C42.273 78.5852 42.5982 78.5002 42.8823 78.3335C43.161 78.1687 43.3736 77.9132 43.4839 77.6104L43.8182 78.5657C43.6827 79.0059 43.3873 79.3806 42.9893 79.617C42.5046 79.8794 41.9563 80.0034 41.405 79.9752ZM43.6009 79.8691V78.4728L43.4672 78.1676V75.6636C43.478 75.4716 43.4472 75.2797 43.3769 75.1006C43.3066 74.9215 43.1983 74.7594 43.0594 74.6254C42.7026 74.3516 42.2558 74.2192 41.8061 74.254C41.4223 74.254 41.041 74.3145 40.6763 74.4331C40.3341 74.5378 40.0136 74.703 39.7305 74.9206L38.9818 73.4712C39.4141 73.1782 39.8949 72.9627 40.4023 72.8344C40.9465 72.6845 41.5087 72.6087 42.0735 72.6089C43.172 72.6089 44.0254 72.8654 44.6337 73.3784C45.2386 73.8924 45.5428 74.705 45.5428 75.7829V79.8625L43.6009 79.8691Z" fill="white"/>
<path d="M49.2762 79.8724L46.2681 72.725H48.4239L50.9407 78.8741H49.8711L52.4815 72.725H54.4869L51.4454 79.8724H49.2762Z" fill="white"/>
<path d="M58.6883 79.9752C57.9398 79.9921 57.1985 79.827 56.5291 79.4943C55.9347 79.2017 55.4354 78.7488 55.0886 78.1875C54.7438 77.6159 54.5677 76.9597 54.5805 76.2937C54.5682 75.6244 54.7416 74.9646 55.0819 74.3866C55.4123 73.8375 55.8872 73.388 56.4556 73.0865C57.0541 72.7815 57.7165 72.6202 58.3893 72.6156C59.0621 72.611 59.7266 72.7632 60.3294 73.0599C60.8871 73.3509 61.3505 73.7924 61.6663 74.3335C62.0103 74.94 62.1813 75.6279 62.161 76.3235C62.161 76.4031 62.161 76.496 62.161 76.5955C62.161 76.695 62.1442 76.7945 62.1342 76.8808H56.2951V75.6635H61.0513L60.2458 76.0217C60.2538 75.685 60.1756 75.3518 60.0185 75.0533C59.873 74.7844 59.6556 74.5606 59.3902 74.4065C59.1033 74.248 58.7792 74.1679 58.451 74.1743C58.1217 74.1687 57.7968 74.2488 57.5084 74.4065C57.2367 74.5623 57.0162 74.7926 56.8734 75.0698C56.7132 75.3768 56.6349 75.7194 56.6461 76.0648V76.3965C56.6386 76.7573 56.7286 77.1135 56.9068 77.428C57.0802 77.7165 57.3362 77.9474 57.6421 78.0913C57.9911 78.2535 58.3732 78.333 58.7584 78.3235C59.1007 78.3296 59.441 78.2711 59.7612 78.151C60.0574 78.031 60.3275 77.8554 60.5566 77.6336L61.6696 78.8276C61.3284 79.2078 60.9011 79.5022 60.4229 79.6867C59.8687 79.8925 59.2798 79.9904 58.6883 79.9752Z" fill="white"/>
<path d="M63.5647 79.8724V70.0251H65.6537V79.8857L63.5647 79.8724Z" fill="white"/>
<path d="M13.0017 84.6186H14.2986V84.9734H12.5772V82.6949H14.2484V83.0498H12.9984L13.0017 84.6186ZM12.9683 83.6435H14.1114V83.9751H12.9683V83.6435Z" fill="white"/>
<path d="M15.1241 84.9668L16.0901 83.6401V83.9718L15.1843 82.6882H15.6656L16.334 83.6335H16.1368L16.8053 82.6849H17.2699L16.3675 83.9552V83.6236L17.3401 84.9502H16.8554L16.1335 83.9552H16.3274L15.6154 84.9502L15.1241 84.9668Z" fill="white"/>
<path d="M18.2559 84.9668V82.6883H19.1951C19.3752 82.6837 19.5541 82.7177 19.7198 82.7878C19.8209 82.8376 19.9104 82.9078 19.9827 82.9937C20.055 83.0797 20.1086 83.1796 20.14 83.2871C20.1714 83.3947 20.18 83.5075 20.1652 83.6185C20.1504 83.7295 20.1126 83.8363 20.0541 83.932C19.9719 84.0556 19.856 84.1534 19.7198 84.2139C19.5534 84.2813 19.3748 84.314 19.1951 84.3101H18.4932L18.6804 84.1111V84.9668H18.2559ZM18.6804 84.1576L18.4932 83.9519H19.1951C19.3463 83.9626 19.4965 83.9203 19.6196 83.8325C19.6636 83.7891 19.6986 83.7374 19.7225 83.6805C19.7463 83.6235 19.7586 83.5625 19.7586 83.5009C19.7586 83.4392 19.7463 83.3782 19.7225 83.3212C19.6986 83.2643 19.6636 83.2127 19.6196 83.1692C19.4965 83.0814 19.3463 83.0391 19.1951 83.0498H18.4932L18.6804 82.8442V84.1576Z" fill="white"/>
<path d="M21.2607 84.9669V82.6883H21.6851V84.6186H22.8717V84.9768L21.2607 84.9669Z" fill="white"/>
<path d="M24.9138 85C24.745 85.0014 24.5774 84.9722 24.4192 84.9138C24.273 84.8579 24.1391 84.7746 24.0248 84.6683C23.9133 84.5634 23.8245 84.437 23.7641 84.2969C23.6439 83.9965 23.6439 83.6619 23.7641 83.3615C23.8245 83.2214 23.9133 83.095 24.0248 82.9901C24.1391 82.8838 24.273 82.8005 24.4192 82.7446C24.7365 82.6298 25.0845 82.6298 25.4018 82.7446C25.5472 82.8021 25.6808 82.8853 25.7962 82.9901C25.9067 83.0952 25.9943 83.2216 26.0536 83.3615C26.1784 83.661 26.1784 83.9974 26.0536 84.2969C25.9951 84.4373 25.9074 84.5639 25.7962 84.6683C25.6808 84.7731 25.5472 84.8563 25.4018 84.9138C25.246 84.9724 25.0805 85.0017 24.9138 85ZM24.9138 84.6285C25.0278 84.6303 25.1411 84.6112 25.2481 84.5721C25.3437 84.534 25.4302 84.4763 25.5021 84.403C25.5753 84.3311 25.6333 84.2454 25.6726 84.1509C25.7146 84.0454 25.735 83.9327 25.7327 83.8193C25.7354 83.7058 25.7149 83.593 25.6726 83.4876C25.6333 83.3931 25.5753 83.3074 25.5021 83.2355C25.4302 83.1622 25.3437 83.1045 25.2481 83.0664C25.1416 83.0256 25.0279 83.0064 24.9138 83.01C24.7997 83.0058 24.6859 83.025 24.5796 83.0664C24.484 83.1045 24.3974 83.1622 24.3256 83.2355C24.2525 83.3082 24.1936 83.3936 24.1518 83.4876C24.1094 83.593 24.089 83.7058 24.0916 83.8193C24.0885 83.9327 24.109 84.0456 24.1518 84.1509C24.1915 84.2462 24.2494 84.3329 24.3222 84.4063C24.3953 84.4797 24.483 84.5373 24.5796 84.5755C24.6862 84.6102 24.7985 84.6248 24.9105 84.6186L24.9138 84.6285Z" fill="white"/>
<path d="M27.2535 84.9668V82.6883H28.1994C28.3784 82.6834 28.5563 82.7173 28.7208 82.7878C28.8566 82.8473 28.9725 82.9439 29.055 83.0664C29.1316 83.198 29.1719 83.3472 29.1719 83.4992C29.1719 83.6512 29.1316 83.8004 29.055 83.932C28.9733 84.0544 28.857 84.1502 28.7208 84.2073C28.5561 84.2766 28.3781 84.3094 28.1994 84.3035H27.4908L27.6813 84.1111V84.9668H27.2535ZM27.6813 84.1576L27.4908 83.9552H28.1793C28.3306 83.9665 28.481 83.9242 28.6038 83.8358C28.651 83.7946 28.6884 83.7434 28.7133 83.6861C28.7381 83.6287 28.7498 83.5666 28.7475 83.5042C28.7506 83.4417 28.7392 83.3793 28.7143 83.3219C28.6894 83.2644 28.6516 83.2133 28.6038 83.1725C28.481 83.0842 28.3306 83.0419 28.1793 83.0531H27.4908L27.6813 82.8475V84.1576ZM28.7575 84.9668L28.176 84.141H28.6305L29.2154 84.9668H28.7575Z" fill="white"/>
<path d="M30.7329 84.6186H32.0297V84.9734H30.3084V82.6949H31.9796V83.0498H30.7295L30.7329 84.6186ZM30.6995 83.6435H31.8425V83.9751H30.6995V83.6435Z" fill="white"/>
<path d="M35.1882 84.9669V83.0465H34.4262V82.6883H36.3748V83.0465H35.6127V84.9669H35.1882Z" fill="white"/>
<path d="M37.7785 84.9669H37.3507V82.6883H37.7785V84.9669ZM38.9985 83.9917H37.7418V83.6236H38.9985V83.9917ZM38.9651 82.6883H39.3895V84.9669H38.9651V82.6883Z" fill="white"/>
<path d="M41.0908 84.6186H42.3843V84.9734H40.663V82.6949H42.3342V83.0498H41.0841L41.0908 84.6186ZM41.0574 83.6435H42.1971V83.9751H41.0574V83.6435Z" fill="white"/>
<path d="M45.6197 84.9669L44.8576 82.6883H45.3022L45.9706 84.7513H45.75L46.4553 82.6883H46.8497L47.5349 84.7513H47.3209L48.0162 82.6883H48.4239L47.6619 84.9669H47.2107L46.5823 83.1095H46.6993L46.0642 84.9669H45.6197Z" fill="white"/>
<path d="M50.4895 85C50.3207 85.0014 50.153 84.9722 49.9948 84.9138C49.8487 84.8579 49.7148 84.7746 49.6004 84.6683C49.49 84.5625 49.4015 84.4363 49.3397 84.2969C49.2195 83.9965 49.2195 83.6619 49.3397 83.3615C49.4015 83.2221 49.49 83.0959 49.6004 82.9901C49.7148 82.8838 49.8487 82.8005 49.9948 82.7446C50.3122 82.6298 50.6602 82.6298 50.9775 82.7446C51.1228 82.8021 51.2564 82.8853 51.3719 82.9901C51.4823 83.0952 51.5699 83.2216 51.6292 83.3615C51.754 83.661 51.754 83.9974 51.6292 84.2969C51.5708 84.4373 51.4831 84.5639 51.3719 84.6683C51.2564 84.7731 51.1228 84.8563 50.9775 84.9138C50.8217 84.9724 50.6562 85.0017 50.4895 85ZM50.4895 84.6285C50.6035 84.6303 50.7168 84.6112 50.8237 84.5721C50.9194 84.534 51.0059 84.4763 51.0778 84.403C51.1509 84.3311 51.2089 84.2454 51.2482 84.1509C51.2902 84.0454 51.3107 83.9327 51.3084 83.8193C51.311 83.7058 51.2906 83.593 51.2482 83.4876C51.2089 83.3931 51.1509 83.3074 51.0778 83.2355C51.0059 83.1622 50.9194 83.1045 50.8237 83.0664C50.7173 83.0256 50.6036 83.0064 50.4895 83.01C50.3754 83.0058 50.2616 83.025 50.1553 83.0664C50.0596 83.1045 49.9731 83.1622 49.9012 83.2355C49.828 83.3074 49.7701 83.3931 49.7308 83.4876C49.6857 83.5923 49.664 83.7054 49.6673 83.8193C49.6635 83.9331 49.6851 84.0464 49.7308 84.1509C49.7693 84.246 49.826 84.3327 49.8979 84.4063C49.971 84.4797 50.0586 84.5373 50.1553 84.5755C50.2619 84.6102 50.3741 84.6248 50.4862 84.6186L50.4895 84.6285Z" fill="white"/>
<path d="M52.8291 84.9668V82.6883H53.775C53.954 82.6834 54.132 82.7173 54.2964 82.7878C54.4322 82.8473 54.5481 82.9439 54.6307 83.0664C54.7072 83.198 54.7475 83.3472 54.7475 83.4992C54.7475 83.6512 54.7072 83.8004 54.6307 83.932C54.549 84.0544 54.4327 84.1502 54.2964 84.2073C54.1317 84.2766 53.9538 84.3094 53.775 84.3035H53.0664L53.257 84.1111V84.9668H52.8291ZM53.257 84.1576L53.0664 83.9552H53.755C53.9062 83.9665 54.0566 83.9242 54.1794 83.8358C54.2267 83.7946 54.2641 83.7434 54.2889 83.6861C54.3138 83.6287 54.3255 83.5666 54.3232 83.5042C54.3262 83.4417 54.3148 83.3793 54.2899 83.3219C54.265 83.2644 54.2272 83.2133 54.1794 83.1725C54.0566 83.0842 53.9062 83.0419 53.755 83.0531H53.0664L53.257 82.8475V84.1576ZM54.3332 84.9668L53.7516 84.141H54.2062L54.7911 84.9668H54.3332Z" fill="white"/>
<path d="M55.884 84.9669V82.6883H56.2951V84.6186H57.495V84.9768L55.884 84.9669Z" fill="white"/>
<path d="M58.5044 84.9669V82.6883H59.5071C59.7386 82.6819 59.9682 82.732 60.1756 82.8342C60.3569 82.9224 60.5097 83.0591 60.6168 83.2289C60.724 83.4108 60.7784 83.6186 60.7739 83.8292C60.7785 84.0389 60.7241 84.2456 60.6168 84.4262C60.5089 84.5963 60.3564 84.7339 60.1756 84.8242C59.9679 84.9255 59.7384 84.9744 59.5071 84.9669H58.5044ZM58.9289 84.6087H59.4871C59.6421 84.6136 59.7959 84.5806 59.935 84.5125C60.0574 84.4516 60.1587 84.3557 60.2257 84.2372C60.2936 84.1112 60.3291 83.9705 60.3291 83.8276C60.3291 83.6847 60.2936 83.544 60.2257 83.418C60.1576 83.3011 60.0565 83.2066 59.935 83.146C59.7962 83.0767 59.6423 83.0425 59.4871 83.0465H58.9289V84.6087Z" fill="white"/>
</g>
<defs>
<linearGradient id="paint0_linear_10_179" x1="36.1775" y1="68.3502" x2="37.471" y2="-14.8193" gradientUnits="userSpaceOnUse">
<stop stop-color="white"/>
<stop offset="1" stop-color="#8381E6"/>
</linearGradient>
<clipPath id="clip0_10_179">
<rect width="89" height="85" fill="white"/>
</clipPath>
</defs>
</svg>
